<svg width="22" height="18" viewBox="0 0 22 18" fill="none" xmlns="http://www.w3.org/2000/svg">
<path d="M10.9752 16.6098H3.70101C1.62266 16.6098 0.327062 14.6552 1.36624 13.0987L5.0101 7.63305L8.65396 2.16744C9.69313 0.610853 12.2843 0.610853 13.3235 2.16744L16.9674 7.63305L20.6112 13.0987C21.6504 14.6552 20.3548 16.6098 18.2764 16.6098H10.9752Z" fill="#FFF4F2" stroke="#D54D34" stroke-width="1.5" stroke-miterlimit="10" stroke-linecap="round" stroke-linejoin="round"/>
<path d="M11 8.64062V13.2753" stroke="#D44D34" stroke-width="1.5" stroke-miterlimit="10" stroke-linecap="round" stroke-linejoin="round"/>
<path d="M11 7C10.4559 7 10 6.55882 10 6C10 5.44118 10.4412 5 11 5C11.5441 5 12 5.44118 12 6C12 6.55882 11.5441 7 11 7Z" fill="#D44D34"/>
</svg>
