<svg width="20" height="20" viewBox="0 0 20 20" fill="none" xmlns="http://www.w3.org/2000/svg">
<path d="M20 10C20 15.5228 15.5228 20 10 20C4.47715 20 0 15.5228 0 10C0 4.47715 4.47715 0 10 0C15.5228 0 20 4.47715 20 10Z" fill="#2B57AD" fill-opacity="0.1"/>
<path d="M5.62964 10.2231C5.20057 9.87537 4.57085 9.9413 4.22311 10.3704C3.87537 10.7994 3.9413 11.4291 4.37036 11.7769L5.62964 10.2231ZM8.29192 13.668L7.66228 14.4449C7.87387 14.6163 8.14626 14.6941 8.41649 14.6602C8.68673 14.6263 8.93143 14.4836 9.09407 14.2651L8.29192 13.668ZM14.8021 6.59712C15.1319 6.15411 15.0401 5.52763 14.5971 5.19785C14.1541 4.86807 13.5276 4.95986 13.1979 5.40288L14.8021 6.59712ZM4.37036 11.7769L7.66228 14.4449L8.92156 12.8911L5.62964 10.2231L4.37036 11.7769ZM9.09407 14.2651L14.8021 6.59712L13.1979 5.40288L7.48977 13.0708L9.09407 14.2651Z" fill="#00AA00"/>
</svg>
