<svg xmlns="http://www.w3.org/2000/svg" width="24" height="24" fill="none" viewBox="0 0 24 24">
    <circle cx="12" cy="12" r="12" fill="#0037FF" transform="rotate(180 12 12)"/>
    <path fill="#fff" fill-rule="evenodd" stroke="#fff" stroke-width=".75" d="M12.001 9.727l5.865 5.474c.118.111.291.154.453.114.162-.04.289-.159.332-.31.043-.151-.003-.313-.122-.423L12.36 8.825l-.023-.028c-.088-.084-.209-.131-.335-.131-.125 0-.246.047-.334.13l-.023.03-6.174 5.758c-.119.111-.165.273-.121.424.044.152.17.27.333.31.162.04.335-.003.454-.114l5.864-5.477z" clip-rule="evenodd"/>
</svg>
