<svg width="30" height="30" viewBox="0 0 30 30" fill="none" xmlns="http://www.w3.org/2000/svg">
<path d="M30 15C30 23.2843 23.2843 30 15 30C6.71573 30 0 23.2843 0 15C0 6.71573 6.71573 0 15 0C23.2843 0 30 6.71573 30 15Z" fill="#2B57AD" fill-opacity="0.1"/>
<path d="M13.0762 17.2383C13.0762 16.459 13.1729 15.8379 13.3662 15.375C13.5596 14.9121 13.9404 14.4053 14.5088 13.8545C15.083 13.2979 15.4463 12.9023 15.5986 12.668C15.833 12.3105 15.9502 11.9238 15.9502 11.5078C15.9502 10.957 15.8125 10.5381 15.5371 10.251C15.2676 9.95801 14.8691 9.81152 14.3418 9.81152C13.8379 9.81152 13.4307 9.95508 13.1201 10.2422C12.8154 10.5234 12.6631 10.9072 12.6631 11.3936H10.5273C10.5391 10.3564 10.8906 9.53613 11.582 8.93262C12.2793 8.3291 13.1992 8.02734 14.3418 8.02734C15.5195 8.02734 16.4365 8.32617 17.0928 8.92383C17.7549 9.52148 18.0859 10.3564 18.0859 11.4287C18.0859 12.3838 17.6406 13.3242 16.75 14.25L15.6689 15.3135C15.2822 15.7529 15.083 16.3945 15.0713 17.2383H13.0762ZM12.9268 19.9717C12.9268 19.626 13.0352 19.3477 13.252 19.1367C13.4688 18.9199 13.7617 18.8115 14.1309 18.8115C14.5059 18.8115 14.8018 18.9229 15.0186 19.1455C15.2354 19.3623 15.3438 19.6377 15.3438 19.9717C15.3438 20.2939 15.2383 20.5635 15.0273 20.7803C14.8164 20.9971 14.5176 21.1055 14.1309 21.1055C13.7441 21.1055 13.4453 20.9971 13.2344 20.7803C13.0293 20.5635 12.9268 20.2939 12.9268 19.9717Z" fill="#898989"/>
</svg>
